M48
;DRILL file {KiCad 4.0.7} date 03/14/18 23:19:00
;FORMAT={-:-/ absolute / inch / decimal}
FMAT,2
INCH,TZ
T1C0.020
T2C0.026
T3C0.028
T4C0.031
T5C0.035
T6C0.043
%
G90
G05
M72
T1
X4.9606Y-4.8425
X5.0394Y-5.
X5.1969Y-3.3071
X5.2756Y-5.0787
X5.4331Y-4.4094
X5.4331Y-5.0394
X5.5118Y-5.1181
X5.5906Y-3.3858
X5.5906Y-4.685
X5.7874Y-5.2362
X6.1811Y-4.1339
T2
X6.15Y-5.1
X6.15Y-5.15
T3
X4.4Y-3.6
X4.45Y-4.
X4.5Y-3.25
X4.6Y-4.35
X4.7Y-3.6
X4.75Y-4.
X4.8Y-3.25
X4.9Y-4.35
X5.05Y-3.05
X5.35Y-3.05
X5.35Y-4.9
X5.65Y-4.9
X5.75Y-3.05
X6.05Y-3.05
X6.2Y-3.9
X6.2Y-4.25
X6.25Y-3.25
X6.25Y-3.55
X6.5Y-3.9
X6.5Y-4.25
X6.55Y-3.25
X6.55Y-3.55
T4
X5.15Y-3.55
X5.15Y-3.85
X5.2Y-4.25
X5.2Y-4.55
X5.25Y-3.55
X5.25Y-3.85
X5.3Y-4.25
X5.3Y-4.55
X5.35Y-3.55
X5.35Y-3.85
X5.4Y-4.25
X5.4Y-4.55
X5.45Y-3.55
X5.45Y-3.85
X5.5Y-4.25
X5.5Y-4.55
X5.55Y-3.55
X5.55Y-3.85
X5.6Y-4.25
X5.6Y-4.55
X5.65Y-3.55
X5.65Y-3.85
X5.7Y-4.25
X5.7Y-4.55
X5.75Y-3.55
X5.75Y-3.85
X5.8Y-4.25
X5.8Y-4.55
X5.85Y-3.55
X5.85Y-3.85
T5
X4.05Y-3.35
X4.05Y-3.95
X4.15Y-3.35
X4.15Y-3.95
X4.25Y-2.75
X4.25Y-4.45
X4.35Y-2.75
X4.35Y-4.45
X5.25Y-2.55
X5.25Y-2.65
X6.05Y-2.55
X6.05Y-2.65
X6.85Y-2.75
X6.85Y-4.45
X6.95Y-2.75
X6.95Y-4.45
X7.05Y-3.35
X7.05Y-3.95
X7.15Y-3.35
X7.15Y-3.95
T6
X4.7Y-5.
X4.8Y-5.
T0
M30
